<svg width="24" height="24" xmlns="http://www.w3.org/2000/svg">
 <title/>

 <g>
  <title>background</title>
  <rect fill="none" id="canvas_background" height="402" width="582" y="-1" x="-1"/>
 </g>
 <g>
  <title>Layer 1</title>
  <path id="svg_1" fill="#36bac9" d="m12,2a8,8 0 0 0 -8,8c0,5.34 6.15,12 8,12s8,-6.66 8,-12a8,8 0 0 0 -8,-8zm0,12a4,4 0 1 1 4,-4a4,4 0 0 1 -4,4z"/>
  <text transform="matrix(1.72957 0 0 0.723069 -9.00674 4.45328)" stroke="null" xml:space="preserve" text-anchor="start" font-family="Helvetica, Arial, sans-serif" font-size="6" id="svg_2" y="9.808113" x="10.453819" stroke-opacity="null" stroke-width="0" fill="#000000"/>
  <text font-weight="bold" transform="matrix(2.33826 0 0 2.24292 -18.8914 -7.19685)" stroke="null" xml:space="preserve" text-anchor="start" font-family="Helvetica, Arial, sans-serif" font-size="6" id="svg_4" y="9.245866" x="11.417672" stroke-opacity="null" stroke-width="0" fill="#36bac9">+</text>
 </g>
</svg>