<svg width="64" height="64" xmlns="http://www.w3.org/2000/svg">

 <g>
  <title>background</title>
  <rect fill="none" id="canvas_background" height="66" width="66" y="-1" x="-1"/>
 </g>
 <g>
  <title>Layer 1</title>
  <path fill="#007f7f" id="svg_3" d="m50.908199,38.43457c-1.05566,-0.31641 -2.174309,0.279301 -2.492668,1.33691c-0.31934,1.057621 0.278809,2.173828 1.336418,2.493168c2.50098,0.754883 4.248051,3.113281 4.248051,5.735352l0,10c0,0.551762 -0.44873,1 -1,1l-18,0c-0.55127,0 -1,-0.448238 -1,-1l0,-10c0,-2.62207 1.74707,-4.980469 4.248051,-5.735352c1.05761,-0.31934 1.655758,-1.435547 1.336418,-2.493168c-0.31982,-1.05761 -1.437008,-1.65332 -2.492668,-1.33691c-4.175301,1.260738 -7.091801,5.19434 -7.091801,9.56543l0,10c0,2.75684 2.24316,5 5,5l18,0c2.75684,0 5,-2.24316 5,-5l0,-10c0,-4.37109 -2.9165,-8.304691 -7.091801,-9.56543z"/>
  <path fill="#00bfbf" id="svg_4" d="m10,22c0,-9.37402 7.62598,-17 17,-17c7.016109,0 13.221191,4.21484 15.809078,10.7373c0.406742,1.02735 1.569832,1.52735 2.596191,1.122081c1.026859,-0.40723 1.529301,-1.570321 1.12159,-2.596681c-3.195808,-8.05665 -10.86084,-13.2627 -19.526859,-13.2627c-11.57959,0 -21,9.4209 -21,21c0,21.611328 18.82324,39.692379 19.62451,40.452148c0.386721,0.366211 0.88135,0.547852 1.375,0.547852c0.530281,0 1.05908,-0.208981 1.452641,-0.625c0.759279,-0.801762 0.7251,-2.067379 -0.07666,-2.827148c-0.183599,-0.173832 -18.37549,-17.638672 -18.37549,-37.547852z"/>
  <path fill="#007f7f" id="svg_5" d="m36,28l0,1c0,4.411129 3.588871,8 8,8s8,-3.588871 8,-8l0,-1c0,-4.411131 -3.588871,-8 -8,-8s-8,3.588869 -8,8zm12,0l0,1c0,2.206051 -1.79443,4 -4,4s-4,-1.793949 -4,-4l0,-1c0,-2.206051 1.79443,-4 4,-4s4,1.793949 4,4z"/>
  <path fill="#36bac9" id="svg_6" d="m45,54c0,1.104488 0.895512,2 2,2l1,0c1.104488,0 2,-0.895512 2,-2s-0.895512,-2 -2,-2l-1,0c-1.104488,0 -2,0.895512 -2,2z"/>
  <text font-weight="bold" transform="matrix(1.34976 0 0 1.3215 -15.806 4.3138)" stroke="null" xml:space="preserve" text-anchor="start" font-family="Helvetica, Arial, sans-serif" font-size="24" id="svg_9" y="20.198232" x="24.319243" stroke-opacity="null" stroke-width="0" fill="#ff6868">+</text>
 </g>
</svg>