<svg width="32" height="32" xmlns="http://www.w3.org/2000/svg">

 <title/>
 <g>
  <title>background</title>
  <rect fill="none" id="canvas_background" height="402" width="582" y="-1" x="-1"/>
 </g>
 <g>
  <title>Layer 1</title>
  <path fill="#007f7f" id="svg_1" d="m25.700001,11.49a10.49,10.49 0 0 0 -2.84,-6.63a9.71,9.71 0 0 0 -13.72,0a10.49,10.49 0 0 0 -2.84,6.63c-0.27,3.13 1.22,5.800001 2.78,8.27c0.37,0.58 3.64,5.780001 5.22,8.35a2,2 0 0 0 1.7,0.949999l0,0a2,2 0 0 0 1.700001,-0.949999c1.58,-2.57 4.849998,-7.77 5.219999,-8.35c1.559999,-2.469999 3.08,-5.14 2.780001,-8.27z" class="cls-1"/>
  <path fill="#00bfbf" id="svg_2" d="m17.700001,28.110001c1.58,-2.57 4.849998,-7.77 5.219999,-8.35c1.559999,-2.469999 3,-5.14 2.780001,-8.27a10.49,10.49 0 0 0 -2.84,-6.63a9.64,9.64 0 0 0 -6.860001,-2.86l0,27a2,2 0 0 0 1.700001,-0.889999z" class="cls-2"/>
  <circle fill="#019696" id="svg_3" r="4" cy="12" cx="16" class="cls-2"/>
  <path fill="#019696" id="svg_4" d="m20,12a4,4 0 0 0 -4,-4l0,8a4,4 0 0 0 4,-4z" class="cls-3"/>
 </g>
</svg>