<svg width="128" height="128" xmlns="http://www.w3.org/2000/svg">

 <g>
  <title>background</title>
  <rect fill="none" id="canvas_background" height="402" width="582" y="-1" x="-1"/>
 </g>
 <g>
  <title>Layer 1</title>
  <path stroke="#1b5289" stroke-width="2" id="svg_1" fill="#1b5289" d="m63,7.8c-20.299999,0 -36.799999,16.499999 -36.799999,36.799998c0,36.800003 36.799999,58.700005 36.799999,58.700005s36.800003,-19.300003 36.800003,-58.700005c0,-20.399998 -16.5,-36.799998 -36.800003,-36.799998zm0.099998,90.7c-7.299999,-5 -32.899998,-24.699997 -32.899998,-54c0,-18.1 14.700001,-32.8 32.799999,-32.8s32.800003,14.7 32.800003,32.8c0,31.400002 -25.300003,49.400002 -32.700005,54z"/>
  <path stroke-width="5" stroke="#1b5289" id="svg_2" fill="#1b5289" d="m63,21c13.199997,0 24,10.799999 24,24s-10.800003,24 -24,24s-24,-10.799999 -24,-24s10.799999,-24 24,-24m0,-2c-14.400002,0 -26,11.6 -26,26s11.599998,26 26,26s26,-11.599998 26,-26s-11.599998,-26 -26,-26l0,0z"/>
  <path id="svg_3" fill="#3B97D3" d="m89.5,81.800003c-0.400002,0.599998 -0.800003,1.199997 -1.300003,1.699997c15.100006,3.300003 24.200005,9.300003 24.200005,15c0,8.400002 -19.800003,17.5 -49.400002,17.5s-49.4,-9 -49.4,-17.5c0,-5.800003 9.299999,-11.800003 24.6,-15.099998c-0.400002,-0.599998 -0.900002,-1.099998 -1.299999,-1.700005c-15.200001,3.400002 -25.300001,9.600006 -25.300001,16.800003c0,10.800003 22.999998,19.5 51.4,19.5s51.400002,-8.699997 51.400002,-19.5c0.099998,-7.099998 -9.900002,-13.300003 -24.900002,-16.699997z"/>
  <text font-weight="bold" transform="matrix(2.01059 0 0 1.6891 -90.2429 -0.716745)" stroke="#1b5289" xml:space="preserve" text-anchor="start" font-family="Helvetica, Arial, sans-serif" font-size="24" id="svg_4" y="35.798142" x="67.571627" stroke-width="0" fill="#ff5656">H</text>
 </g>
</svg>