<svg width="512" height="512" xmlns="http://www.w3.org/2000/svg">

 <g>
  <title>background</title>
  <rect fill="none" id="canvas_background" height="402" width="582" y="-1" x="-1"/>
 </g>
 <g>
  <title>Layer 1</title>
  <circle fill="#00eada" id="svg_1" r="125.8" cy="213.4" cx="256" class="st0"/>
  <path fill="#36bac9" id="svg_3" d="m352,117.5c-44.200012,-44.199997 -112.399994,-52.599998 -165.899994,-20.400002l10.300003,17.099998c45.599991,-27.399994 103.800003,-20.299995 141.500015,17.400009c37.699982,37.699997 44.799988,95.899994 17.399994,141.5l17.100006,10.299988c32.199982,-53.5 23.799988,-121.699997 -20.400024,-165.899994z" class="st1"/>
  <path fill="#36bac9" id="svg_4" d="m337.799988,295.299988c-2.100006,2.100006 -4.299988,4.100006 -6.5,6.100006l13,15.199982c2.600006,-2.299988 5.200012,-4.599976 7.700012,-7.099976c2.599976,-2.600006 5.199982,-5.400024 7.599976,-8.200012l-15.199982,-12.899994c-2.100006,2.300018 -4.299988,4.600006 -6.600006,6.899994z" class="st1"/>
  <path fill="#36bac9" id="svg_5" d="m121.099998,228.800003c3.5,30.800003 16.900002,58.699997 38.900002,80.699997c22,22 49.899994,35.399994 80.699997,38.899994c5.100006,0.600006 10.100006,0.899994 15.199997,0.899994c24.899994,0 49.5,-6.799988 70.800018,-19.799988l-10.400024,-17.100006c-45.699982,27.899994 -104.099991,20.899994 -141.999985,-17c-37.900009,-37.899994 -44.900009,-96.299988 -17,-142l-17.300003,-10.599991c-15.5,25.599991 -22.300003,56.099991 -18.900002,86z" class="st1"/>
  <path fill="#36bac9" id="svg_6" d="m174.199997,131.600006c2.300003,-2.300003 4.600006,-4.399994 7,-6.499992l-12.899994,-15.200005c-2.800003,2.400002 -5.600006,5 -8.199997,7.599998c-2.5,2.5 -4.800003,5 -7.100006,7.700005l15.199997,13c1.800003,-2.300018 3.900009,-4.500015 6,-6.600006z" class="st1"/>
  <path fill="#36bac9" id="svg_7" d="m439.200012,184.5l19.799988,-3.100006c-6.799988,-43.099991 -26.699982,-82.299995 -57.699982,-113.199997c-31.100006,-31.099998 -70.399994,-50.999996 -113.700012,-57.699997l-3.100006,19.799999c39.100006,6 74.5,24.100002 102.600006,52.100002c28,27.900002 46,63.200005 52.100006,102.099998z" class="st1"/>
  <path fill="#36bac9" id="svg_8" d="m461.100006,202.399994l-20,1.099991c0.300018,6.300003 0.399994,12.700012 0,19l20,1c0.399994,-6.999985 0.399994,-14.099991 0,-21.099991z" class="st1"/>
  <path fill="#36bac9" id="svg_9" d="m387.100006,344.600006l-131.100006,131.100006l-131.099998,-131.100006c-28,-28 -46,-63.5 -52.099998,-102.5l-19.800003,3.099991c6.700001,43.199997 26.699997,82.500015 57.699997,113.599991l145.300003,145.200012l145.299988,-145.299988c31.200012,-31.200012 51.200012,-70.700012 57.800018,-114.200012l-19.800018,-3c-6,39.200012 -24,74.899994 -52.199982,103.100006z" class="st1"/>
  <path fill="#36bac9" id="svg_10" d="m70.800003,203.5l-20.000004,-1.100006c-0.399998,7 -0.399998,14 -0.099998,21l19.999996,-1c-0.199997,-6.199997 -0.199997,-12.599991 0.100006,-18.899994z" class="st1"/>
  <path fill="#36bac9" id="svg_11" d="m124.900002,82.300003c27.999992,-28.000004 63.499992,-46.100002 102.599998,-52.100002l-3.100006,-19.799991c-43.299988,6.7 -82.599991,26.7 -113.699997,57.700004c-31,31 -50.899998,70.099983 -57.699997,113.199989l19.800003,3.099991c6.099998,-38.799988 24.099998,-74.099991 52.099998,-102.099991z" class="st1"/>
  <path fill="#36bac9" id="svg_12" d="m265.5,28.299999l1,-19.999999c-7,-0.4 -14,-0.4 -21,0l1,19.999999c6.300003,-0.4 12.700012,-0.4 19,0z" class="st1"/>
  <path id="svg_13" d="m233.296005,139.841995c58.258987,25.703003 40.26799,67.684006 40.009995,67.493011c0.257996,0.190994 -48.578003,-19.514008 -48.835999,-19.705002c0.257996,0.190994 -45.149994,89.294006 -45.408005,89.102997c0.258011,0.19101 131.341995,22.466003 131.084,22.274994c0.257996,0.19101 30.244995,-59.781998 29.987,-59.972992c0.257996,0.190994 -5.73999,-88.055008 -5.997986,-88.246002c0.257996,0.190994 -159.099014,-36.649002 -100.839005,-10.947006z" stroke-opacity="null" stroke-width="null" stroke="null" fill="#00eada"/>
  <path d="m200.739166,174.112778c0,0 0.130432,0.655746 1.713516,0c1.1194,-0.463684 2.570267,-2.570282 4.283783,-3.427032c1.713516,-0.856766 3.427032,-1.713516 5.140549,-2.570267c1.713516,-0.856766 2.307617,-2.106598 3.427017,-2.570282c1.583084,-0.655746 2.419281,-0.416595 4.283798,-0.85675c2.501511,-0.590515 5.140533,-0.856766 6.85405,-0.856766c2.570267,0 3.427032,0 5.140549,0c0.85675,0 2.570251,0 3.427017,0.856766c0.856766,0.856766 1.713516,0.85675 2.570282,1.713516c0.85675,0.85675 1.713516,2.570267 3.427017,3.427017c1.713516,0.856766 2.718582,2.444107 3.427032,3.427032c1.120178,1.554153 1.450089,3.586395 2.570267,5.140549c0.708466,0.982925 1.713516,2.570267 1.713516,2.570267c0,0.85675 0,0.85675 0,0.85675l0,-0.85675l0,-0.85675l0,0" id="svg_14" stroke-opacity="null" stroke-width="null" stroke="null" fill="none"/>
  <path stroke="null" d="m162.185104,283.27005c0,0 0,-6.124298 0,-12.248505c0,-12.248444 0.566727,-29.719193 3.274078,-36.745392c4.280609,-11.109329 5.295166,-18.838821 6.548065,-24.496948c1.771881,-8.001663 5.29512,-12.71463 6.548035,-18.372665c1.771927,-8.001633 9.822144,-12.248367 16.370224,-18.372635c6.548035,-6.124207 12.519073,-15.226486 19.644196,-18.372757c3.186478,-1.407043 6.548065,-6.124207 13.096146,-6.124207c3.274033,0 6.548111,-6.124176 9.822098,-6.124176c0,0 3.274078,0 9.822159,0c3.274033,0 13.096115,0 19.64418,0c9.822113,0 16.626984,4.837006 26.192322,12.248383c6.763672,5.24057 12.131805,14.368591 19.644196,24.496933c5.939087,8.007202 11.324219,16.495209 13.096161,24.496948c1.25293,5.658005 3.74646,17.969299 6.548096,30.621124c3.962067,17.892288 6.548035,42.869598 9.822052,55.118042l3.273987,12.248505l0,6.124176l0,0" id="svg_15" stroke-opacity="null" stroke-width="null" fill="none"/>
 </g>
</svg>